G75*
%MOIN*%
%OFA0B0*%
%FSLAX24Y24*%
%IPPOS*%
%LPD*%
%AMOC8*
5,1,8,0,0,1.08239X$1,22.5*
%
%ADD10C,0.0000*%
%ADD11C,0.0500*%
%ADD12R,0.0700X0.0700*%
%ADD13R,0.0560X0.0350*%
%ADD14R,0.0450X0.0450*%
%ADD15R,0.0700X0.0280*%
%ADD16R,0.0413X0.0425*%
%ADD17R,0.0425X0.0413*%
%ADD18R,0.0364X0.0291*%
%ADD19R,0.0512X0.0591*%
%ADD20R,0.0472X0.0315*%
%ADD21R,0.0570X0.0360*%
%ADD22R,0.0650X0.0551*%
%ADD23R,0.0291X0.0364*%
%ADD24R,0.0360X0.0570*%
%ADD25R,0.0570X0.0440*%
%ADD26R,0.0440X0.0570*%
%ADD27R,0.0787X0.0591*%
%ADD28R,0.0630X0.0512*%
%ADD29R,0.0335X0.0138*%
%ADD30R,0.0591X0.0787*%
%ADD31R,0.1496X0.0787*%
%ADD32R,0.0866X0.0236*%
%ADD33R,0.0472X0.0709*%
%ADD34R,0.0551X0.0945*%
%ADD35R,0.0945X0.0551*%
%ADD36R,0.0709X0.0472*%
%ADD37R,0.0276X0.0591*%
%ADD38R,0.0315X0.0315*%
%ADD39C,0.0650*%
%ADD40R,0.0512X0.0748*%
%ADD41R,0.0354X0.0276*%
%ADD42R,0.0591X0.0512*%
%ADD43R,0.0276X0.0354*%
%ADD44R,0.0400X0.0230*%
%ADD45C,0.0157*%
%ADD46C,0.0305*%
%ADD47C,0.0276*%
%ADD48R,0.0710X0.0410*%
%ADD49R,0.0490X0.0240*%
%ADD50R,0.0410X0.0710*%
%ADD51R,0.0240X0.0490*%
%ADD52R,0.0120X0.0390*%
%ADD53R,0.0394X0.0138*%
%ADD54R,0.0118X0.0472*%
%ADD55R,0.0472X0.0118*%
%ADD56R,0.0472X0.0217*%
%ADD57R,0.0240X0.0870*%
%ADD58R,0.0299X0.0945*%
%ADD59R,0.0118X0.0591*%
D10*
X000500Y000494D02*
X000500Y038246D01*
X035988Y038246D01*
X036008Y000494D01*
X000500Y000494D01*
D11*
X012276Y005474D02*
X012276Y007006D01*
X012260Y007947D02*
X012260Y019797D01*
X012142Y019797D01*
X012051Y019801D02*
X009358Y019793D01*
X006323Y019793D01*
X015858Y019801D02*
X019004Y019801D01*
X019004Y019766D01*
X025106Y018557D02*
X025106Y015041D01*
X025126Y018557D02*
X025106Y018557D01*
X028118Y019817D02*
X033350Y019817D01*
X033350Y019833D01*
X030382Y004301D02*
X030382Y004242D01*
X025323Y004242D01*
D12*
X022727Y004600D03*
X021073Y004600D03*
X021073Y006600D03*
X022727Y006600D03*
D13*
X022300Y006100D03*
X021500Y006100D03*
X021500Y005100D03*
X022300Y005100D03*
D14*
X022877Y005600D03*
X020923Y005600D03*
D15*
X021450Y005600D03*
X022350Y005600D03*
D16*
X030619Y030199D03*
X031308Y030199D03*
D17*
X019550Y028594D03*
X019550Y027906D03*
D18*
X021464Y028450D03*
X021936Y028450D03*
X022902Y027716D03*
X023374Y027716D03*
X023164Y026200D03*
X023636Y026200D03*
X021636Y030100D03*
X021164Y030100D03*
X017936Y025766D03*
X017464Y025766D03*
X017564Y022900D03*
X018036Y022900D03*
X018164Y022500D03*
X018636Y022500D03*
X022764Y021550D03*
X022764Y021100D03*
X023236Y021100D03*
X023236Y021550D03*
X010236Y024000D03*
X009764Y024000D03*
D19*
X016926Y018650D03*
X017674Y018650D03*
X021626Y013200D03*
X022374Y013200D03*
X016874Y006400D03*
X016126Y006400D03*
X017626Y028950D03*
X018374Y028950D03*
D20*
X003800Y020604D03*
X003800Y019896D03*
D21*
X015350Y014870D03*
X015350Y014230D03*
X016200Y012170D03*
X016200Y011530D03*
X015400Y010220D03*
X015400Y009580D03*
X016950Y009670D03*
X016950Y009030D03*
X016950Y007720D03*
X016950Y007080D03*
X016150Y007030D03*
X016150Y007670D03*
X015800Y004970D03*
X015800Y004330D03*
X015100Y004330D03*
X015100Y004970D03*
X023550Y006130D03*
X023550Y006770D03*
D22*
X003500Y021200D03*
X002300Y021200D03*
D23*
X022650Y026714D03*
X022650Y027186D03*
X022650Y029464D03*
X022650Y029936D03*
D24*
X014420Y015200D03*
X013780Y015200D03*
X013780Y014500D03*
X014420Y014500D03*
X014330Y012150D03*
X014970Y012150D03*
X017980Y014100D03*
X018620Y014100D03*
X020630Y014150D03*
X021270Y014150D03*
X021270Y014900D03*
X020630Y014900D03*
X014470Y004850D03*
X013830Y004850D03*
X013220Y002950D03*
X012580Y002950D03*
X015830Y002500D03*
X016470Y002500D03*
D25*
X013200Y005540D03*
X013200Y006260D03*
X015350Y008290D03*
X015350Y009010D03*
X017750Y007810D03*
X017750Y007090D03*
X018600Y011890D03*
X018600Y012610D03*
X016150Y014090D03*
X016150Y014810D03*
D26*
X019290Y013150D03*
X020010Y013150D03*
X016860Y010950D03*
X016140Y010950D03*
X015410Y018700D03*
X014690Y018700D03*
D27*
X025700Y007991D03*
X025700Y006809D03*
X001200Y006609D03*
X001200Y007791D03*
D28*
X021950Y014356D03*
X021950Y015144D03*
X022700Y015394D03*
X022700Y014606D03*
D29*
X020113Y030376D03*
X020113Y031124D03*
X019187Y031124D03*
X019187Y030750D03*
X019187Y030376D03*
D30*
X019450Y017440D03*
X018544Y017440D03*
X020356Y017440D03*
D31*
X019450Y014960D03*
D32*
X016617Y016250D03*
X016617Y016750D03*
X016617Y017250D03*
X016617Y017750D03*
X013793Y017750D03*
X013793Y017250D03*
X013793Y016750D03*
X013793Y016250D03*
D33*
X017300Y028050D03*
X018600Y028050D03*
D34*
X015272Y011150D03*
X014328Y011150D03*
X014128Y005850D03*
X015072Y005850D03*
X014972Y003400D03*
X014028Y003400D03*
D35*
X012900Y003828D03*
X012900Y004772D03*
X014400Y009078D03*
X014400Y010022D03*
X019750Y010828D03*
X019750Y011772D03*
X021900Y009922D03*
X021900Y008978D03*
D36*
X026799Y026987D03*
X026799Y028286D03*
X004650Y021250D03*
X004650Y019950D03*
D37*
X013776Y013700D03*
X014524Y013700D03*
X019226Y014100D03*
X019974Y014100D03*
D38*
X016776Y022381D03*
X016370Y022586D03*
X016776Y022972D03*
X016370Y023177D03*
D39*
X010324Y017331D03*
X010324Y015757D03*
X010324Y014182D03*
X010324Y012607D03*
X010324Y011032D03*
X010324Y009457D03*
X010324Y007883D03*
X010324Y006308D03*
X002450Y006300D03*
X002450Y007883D03*
X002450Y009457D03*
X002450Y011032D03*
X002450Y012607D03*
X002450Y014182D03*
X002450Y015757D03*
X002450Y017331D03*
X027050Y017531D03*
X027050Y015957D03*
X027050Y014382D03*
X027050Y012807D03*
X027050Y011232D03*
X027050Y009657D03*
X027050Y008083D03*
X027050Y006500D03*
X034924Y006508D03*
X034924Y008083D03*
X034924Y009657D03*
X034924Y011232D03*
X034924Y012807D03*
X034924Y014382D03*
X034924Y015957D03*
X034924Y017531D03*
D40*
X025533Y028420D03*
X025533Y029680D03*
X023367Y029680D03*
X023367Y028420D03*
D41*
X020950Y028356D03*
X020950Y027844D03*
X016776Y023856D03*
X016370Y024107D03*
X016370Y023596D03*
X016776Y023344D03*
X021080Y021444D03*
X021080Y020933D03*
X021623Y020925D03*
X021623Y021437D03*
X018463Y011176D03*
X018463Y010664D03*
X023450Y005506D03*
X023450Y004994D03*
X023900Y004994D03*
X023900Y005506D03*
X010100Y024544D03*
X010100Y025056D03*
X010100Y026194D03*
X010100Y026706D03*
D42*
X023300Y013874D03*
X023300Y013126D03*
X024100Y013126D03*
X024100Y013874D03*
X016150Y009024D03*
X016150Y008276D03*
X024209Y026250D03*
X024209Y026998D03*
D43*
X009556Y026050D03*
X009044Y026050D03*
X009044Y025200D03*
X009556Y025200D03*
X009556Y023450D03*
X009556Y022950D03*
X009044Y022950D03*
X009044Y023450D03*
D44*
X009000Y031800D03*
X009000Y032200D03*
X008500Y032200D03*
X008500Y031800D03*
X008000Y031800D03*
X008000Y032200D03*
X007500Y032200D03*
X007500Y031800D03*
X007000Y031800D03*
X007000Y032200D03*
X006500Y032200D03*
X006500Y031800D03*
X006000Y031800D03*
X006000Y032200D03*
X009500Y032200D03*
X009500Y031800D03*
X010000Y031800D03*
X010000Y032200D03*
X010500Y032200D03*
X010500Y031800D03*
X011000Y031800D03*
X011000Y032200D03*
X011500Y032200D03*
X011500Y031800D03*
X012000Y031800D03*
X012000Y032200D03*
X012500Y032200D03*
X012500Y031800D03*
X013000Y031800D03*
X013000Y032200D03*
X013500Y032200D03*
X013500Y031800D03*
D45*
X008415Y026128D02*
X008415Y025970D01*
X007941Y025970D01*
X007941Y026128D01*
X008415Y026128D01*
X008415Y026126D02*
X007941Y026126D01*
X007941Y025695D02*
X007941Y025537D01*
X007941Y025695D02*
X008415Y025695D01*
X008415Y025537D01*
X007941Y025537D01*
X007941Y025693D02*
X008415Y025693D01*
X007941Y025262D02*
X007941Y025104D01*
X007941Y025262D02*
X008415Y025262D01*
X008415Y025104D01*
X007941Y025104D01*
X007941Y025260D02*
X008415Y025260D01*
X007941Y024829D02*
X007941Y024671D01*
X007941Y024829D02*
X008415Y024829D01*
X008415Y024671D01*
X007941Y024671D01*
X007941Y024827D02*
X008415Y024827D01*
X007941Y024396D02*
X007941Y024238D01*
X007941Y024396D02*
X008415Y024396D01*
X008415Y024238D01*
X007941Y024238D01*
X007941Y024394D02*
X008415Y024394D01*
X007941Y023963D02*
X007941Y023805D01*
X007941Y023963D02*
X008415Y023963D01*
X008415Y023805D01*
X007941Y023805D01*
X007941Y023961D02*
X008415Y023961D01*
X007941Y023530D02*
X007941Y023372D01*
X007941Y023530D02*
X008415Y023530D01*
X008415Y023372D01*
X007941Y023372D01*
X007941Y023528D02*
X008415Y023528D01*
X007941Y023097D02*
X007941Y022939D01*
X007941Y023097D02*
X008415Y023097D01*
X008415Y022939D01*
X007941Y022939D01*
X007941Y023095D02*
X008415Y023095D01*
D46*
X006795Y022358D02*
X006795Y022052D01*
X006795Y022358D02*
X007593Y022358D01*
X007593Y022052D01*
X006795Y022052D01*
X006795Y022356D02*
X007593Y022356D01*
X003902Y022358D02*
X003902Y022052D01*
X003902Y022358D02*
X004424Y022358D01*
X004424Y022052D01*
X003902Y022052D01*
X003902Y022356D02*
X004424Y022356D01*
X007838Y026831D02*
X007838Y027157D01*
X008144Y027157D01*
X008144Y026831D01*
X007838Y026831D01*
X007838Y027135D02*
X008144Y027135D01*
D47*
X007096Y028062D02*
X007096Y028336D01*
X008000Y028336D01*
X008000Y028062D01*
X007096Y028062D01*
X003337Y028062D02*
X003337Y028336D01*
X004241Y028336D01*
X004241Y028062D01*
X003337Y028062D01*
X001663Y028060D02*
X001663Y027786D01*
X001663Y028060D02*
X002135Y028060D01*
X002135Y027786D01*
X001663Y027786D01*
X002057Y022312D02*
X002057Y022038D01*
X002057Y022312D02*
X002529Y022312D01*
X002529Y022038D01*
X002057Y022038D01*
D48*
X009250Y003900D03*
X009250Y002460D03*
X031350Y002510D03*
X031350Y003950D03*
D49*
X031750Y003230D03*
X030850Y003230D03*
X009650Y003180D03*
X008750Y003180D03*
D50*
X015800Y003650D03*
X017240Y003650D03*
D51*
X016520Y004050D03*
X016520Y003150D03*
D52*
X018287Y007447D03*
X018543Y007447D03*
X018799Y007447D03*
X019055Y007447D03*
X019311Y007447D03*
X019567Y007447D03*
X019822Y007447D03*
X020078Y007447D03*
X020334Y007447D03*
X020590Y007447D03*
X020846Y007447D03*
X021102Y007447D03*
X021102Y009745D03*
X020846Y009745D03*
X020590Y009745D03*
X020334Y009745D03*
X020078Y009745D03*
X019822Y009745D03*
X019567Y009745D03*
X019311Y009745D03*
X019055Y009745D03*
X018799Y009745D03*
X018543Y009745D03*
X018287Y009745D03*
D53*
X022038Y010832D03*
X022038Y011088D03*
X022038Y011344D03*
X022038Y011600D03*
X022038Y011856D03*
X022038Y012112D03*
X022038Y012368D03*
X024262Y012368D03*
X024262Y012112D03*
X024262Y011856D03*
X024262Y011600D03*
X024262Y011344D03*
X024262Y011088D03*
X024262Y010832D03*
D54*
X022326Y022156D03*
X022130Y022156D03*
X021933Y022156D03*
X021736Y022156D03*
X021539Y022156D03*
X021342Y022156D03*
X021145Y022156D03*
X020948Y022156D03*
X020752Y022156D03*
X020555Y022156D03*
X020358Y022156D03*
X020161Y022156D03*
X019964Y022156D03*
X019767Y022156D03*
X019570Y022156D03*
X019374Y022156D03*
X019374Y026644D03*
X019570Y026644D03*
X019767Y026644D03*
X019964Y026644D03*
X020161Y026644D03*
X020358Y026644D03*
X020555Y026644D03*
X020752Y026644D03*
X020948Y026644D03*
X021145Y026644D03*
X021342Y026644D03*
X021539Y026644D03*
X021736Y026644D03*
X021933Y026644D03*
X022130Y026644D03*
X022326Y026644D03*
D55*
X023094Y025876D03*
X023094Y025680D03*
X023094Y025483D03*
X023094Y025286D03*
X023094Y025089D03*
X023094Y024892D03*
X023094Y024695D03*
X023094Y024498D03*
X023094Y024302D03*
X023094Y024105D03*
X023094Y023908D03*
X023094Y023711D03*
X023094Y023514D03*
X023094Y023317D03*
X023094Y023120D03*
X023094Y022924D03*
X018606Y022924D03*
X018606Y023120D03*
X018606Y023317D03*
X018606Y023514D03*
X018606Y023711D03*
X018606Y023908D03*
X018606Y024105D03*
X018606Y024302D03*
X018606Y024498D03*
X018606Y024695D03*
X018606Y024892D03*
X018606Y025089D03*
X018606Y025286D03*
X018606Y025483D03*
X018606Y025680D03*
X018606Y025876D03*
D56*
X019138Y029076D03*
X019138Y029450D03*
X019138Y029824D03*
X020162Y029824D03*
X020162Y029076D03*
D57*
X014200Y022480D03*
X013700Y022480D03*
X013200Y022480D03*
X012700Y022480D03*
X012700Y020420D03*
X013200Y020420D03*
X013700Y020420D03*
X014200Y020420D03*
D58*
X025302Y022528D03*
X025802Y022528D03*
X026302Y022528D03*
X026802Y022528D03*
X027302Y022528D03*
X027302Y024851D03*
X026802Y024851D03*
X026302Y024851D03*
X025802Y024851D03*
X025302Y024851D03*
D59*
X034783Y027211D03*
X034980Y027211D03*
X035177Y027211D03*
X035374Y027211D03*
M02*
