%
M48
M72
T01C0.0098
T02C0.0138
T03C0.0157
T04C0.0197
T05C0.0236
T06C0.0315
T07C0.0320
T08C0.0394
T09C0.1260
%
T01
X2232Y4077
X2429Y4077
X2626Y4077
X2823Y4077
X3020Y4077
X3217Y4077
X3413Y4077
X3610Y4077
X3807Y4077
X4004Y4077
X4201Y4077
X4398Y4077
X4594Y4077
X4791Y4077
X4988Y4077
X5185Y4077
X5579Y3683
X5776Y3683
X5972Y3683
X6169Y3683
X6366Y3683
X6563Y3683
X6760Y3683
X6957Y3683
X7154Y3683
X7350Y3683
X7547Y3683
X7744Y3683
X7941Y3683
X8138Y3683
X8335Y3683
X8531Y3683
X8531Y3486
X8728Y4274
X8728Y4274
X8728Y4470
X8728Y4667
X8728Y4864
X8728Y5061
X8728Y5258
X8728Y5455
X8728Y5652
X9713Y5652
X9909Y5652
X10106Y5652
X10303Y5652
X10500Y5652
X10697Y5652
X9713Y5455
X9713Y5258
X9713Y5061
X9713Y4864
X9713Y4667
X9713Y4470
X8531Y2108
X8531Y1911
X8531Y1715
X8531Y1518
X8531Y1321
X8335Y1321
X8138Y1321
X7941Y1321
X7744Y1321
X7547Y1321
X7350Y1321
X7154Y1321
X6957Y1321
X6760Y1321
X6563Y1321
X6366Y1321
X6169Y1321
X5972Y1321
X5776Y1321
X5579Y1321
X5579Y1518
X5579Y1715
X5579Y1911
X5579Y2108
X5579Y2305
X5579Y2502
X5579Y2699
X5579Y2896
X5579Y3093
X5579Y3289
X5579Y3486
X2823Y5455
X2823Y5652
X2626Y5258
X1839Y4470
X2035Y4274
X1642Y4667
X1445Y4864
X2823Y7030
X2823Y7226
X2823Y7423
X2823Y8407
X2823Y8604
X2823Y8801
X2823Y8998
X2823Y9982
X2823Y10179
X2823Y10376
X2823Y10573
X2823Y11754
X2823Y11951
X2823Y12148
X2823Y13329
X2823Y13526
X2823Y13722
X2823Y14707
X2823Y14904
X2823Y16478
X2823Y16478
X2823Y16675
X2823Y16872
X2823Y17856
X2823Y18053
X2823Y18250
X2823Y18447
X2823Y18644
X2823Y18841
X2823Y19037
X6957Y19431
X7154Y19431
X7350Y19431
X7547Y19431
X7744Y19431
X7941Y19431
X8138Y19431
X8335Y19431
X8531Y19431
X8728Y19431
X8945Y19431
X9142Y19431
X9319Y19431
X9516Y19431
X9713Y19431
X9909Y19431
X10106Y19451
X10303Y19451
X10913Y19411
X11091Y19234
X11287Y19037
X11484Y19037
X11681Y19037
X11878Y19037
X11878Y18841
X11878Y18644
X11878Y18447
X11878Y18250
X11878Y18053
X11878Y16675
X12075Y16478
X12075Y16281
X12075Y16085
X12075Y15888
X12075Y15691
X12075Y15494
X12075Y15297
X12075Y15100
X12075Y14904
X12075Y14707
X12075Y14510
X12075Y14313
X12075Y14116
X12075Y13919
X12075Y13722
X12075Y13526
X12075Y13329
X12075Y13132
X12075Y12935
X12075Y12738
X12075Y12541
X12075Y12344
X12075Y12148
X12075Y11951
X12075Y11754
X12075Y11557
X12075Y11360
X12075Y8407
X12075Y8211
X12075Y8014
X12075Y7030
X12075Y6833
X12075Y6636
X12075Y6439
X12075Y6242
X12075Y6045
X12075Y5848
X12075Y5061
X12075Y4864
X12075Y4667
X12075Y4470
X12075Y4274
X12075Y4077
X12075Y3880
X12075Y3683
X12075Y3486
X17783Y3289
X17783Y3093
X17783Y2896
X17783Y2699
X17783Y2502
X17980Y2502
X18177Y2502
X18374Y2502
X18571Y2502
X18768Y2502
X18965Y2502
X19161Y2502
X19358Y2502
X19555Y2502
X19752Y2502
X19949Y2502
X20146Y2502
X20146Y2699
X20146Y2896
X20146Y3093
X20146Y3289
X20146Y3486
X20146Y3683
X20146Y3880
X20146Y4077
X20146Y4274
X20146Y4470
X20146Y4667
X20146Y4864
X19949Y4864
X19752Y4864
X19555Y4864
X19358Y4864
X19161Y4864
X18965Y4864
X18768Y4864
X18571Y4864
X18374Y4864
X18177Y4864
X17980Y4864
X17783Y4667
X17783Y4470
X17783Y4274
X17783Y4077
X20539Y3880
X20736Y3880
X20933Y3880
X21130Y3880
X21327Y3880
X21524Y3880
X21720Y3880
X21917Y3880
X22114Y3880
X22311Y3880
X22508Y3880
X22705Y3880
X22902Y3880
X23098Y3880
X23295Y3880
X23492Y3880
X23689Y3880
X23886Y3880
X24083Y3880
X24280Y3880
X24476Y3880
X24673Y3880
X24870Y3880
X25067Y3880
X25264Y3880
X25461Y3880
X25657Y3880
X25854Y3880
X26051Y3880
X26248Y3880
X26445Y3880
X26642Y3880
X26839Y3880
X27035Y3683
X27035Y3486
X27035Y3289
X27035Y3093
X27035Y2896
X27035Y2699
X27035Y2502
X27035Y2305
X27035Y2108
X27035Y1911
X27035Y1715
X27035Y1518
X27232Y1518
X27429Y1518
X27626Y1518
X27823Y1518
X28020Y1518
X28217Y1518
X28413Y1518
X28610Y1518
X28807Y1518
X29004Y1518
X29201Y1518
X29398Y1518
X29594Y1518
X29791Y1518
X29791Y1715
X29791Y1911
X29791Y2108
X29791Y2305
X29988Y2305
X30185Y2305
X30382Y2305
X30579Y2305
X30579Y2896
X30382Y2896
X30185Y2896
X29988Y2896
X29791Y2896
X29791Y3093
X29791Y3289
X29791Y3486
X29791Y3683
X29594Y3683
X29398Y3683
X29201Y3683
X29004Y3683
X28807Y3683
X28610Y3683
X28413Y3683
X28217Y3683
X28020Y3683
X27823Y3683
X27626Y3683
X27429Y3683
X27232Y3683
X26051Y4667
X25854Y4667
X25657Y4667
X25461Y4667
X25264Y4667
X25067Y4667
X24870Y4667
X24673Y4667
X24673Y4864
X24673Y5061
X24673Y5258
X24673Y5455
X24673Y5652
X24673Y5848
X24673Y6045
X24673Y6242
X24673Y6439
X24673Y6636
X24673Y6833
X24673Y7030
X24673Y7226
X24673Y7423
X24673Y7620
X24673Y7817
X24673Y8014
X24673Y8211
X24673Y8407
X24673Y8604
X24673Y8801
X24673Y8998
X24673Y9195
X25264Y12344
X25264Y12541
X25067Y12738
X24870Y12935
X24673Y13132
X24673Y13329
X24673Y13526
X24673Y13722
X26445Y15297
X26445Y15494
X26445Y15691
X26445Y15888
X26445Y16085
X26445Y16281
X26445Y17266
X26445Y17463
X26445Y17659
X26445Y17856
X26445Y18053
X26445Y18250
X26445Y18447
X26445Y18644
X26445Y18841
X26445Y19037
X26445Y19234
X26642Y19431
X26839Y19628
X27626Y20219
X27823Y20219
X28020Y20219
X28217Y20219
X28413Y20219
X28610Y20219
X28807Y20219
X29004Y20219
X29201Y20219
X29398Y20219
X29594Y20219
X32350Y18644
X32547Y18644
X32744Y18644
X32941Y18644
X33138Y18644
X33335Y18644
X33531Y18644
X33728Y18644
X33925Y18644
X34122Y18644
X34319Y18644
X34516Y18644
X35303Y18644
X35303Y18841
X35303Y19037
X35303Y19234
X35303Y19431
X35303Y19628
X35303Y19825
X35303Y20022
X35303Y20219
X35106Y20219
X34909Y20219
X34713Y20219
X34516Y20219
X34319Y20219
X34122Y20219
X33925Y20219
X33728Y20219
X33531Y20219
X33335Y20219
X33138Y20219
X35303Y18447
X35303Y18250
X35303Y18053
X35500Y17856
X35697Y17659
X35697Y17463
X35697Y17266
X35697Y17069
X35697Y16872
X35697Y16675
X35697Y16478
X35697Y16281
X35697Y16085
X35697Y15888
X35697Y15691
X35697Y15494
X35697Y15297
X35697Y15100
X35697Y14904
X35697Y14707
X35697Y14510
X35697Y14313
X35697Y14116
X35697Y13919
X35697Y13722
X35697Y13526
X35697Y13329
X35697Y13132
X35697Y12935
X35697Y12738
X35697Y12541
X35697Y12344
X35697Y12148
X35697Y11951
X35697Y11951
X35697Y11754
X35697Y11557
X35697Y11360
X35697Y11163
X35697Y10967
X35697Y10770
X35697Y10573
X35697Y10376
X35697Y10179
X35697Y10179
X35697Y9982
X35697Y9785
X35697Y9589
X35697Y9392
X35697Y9195
X35697Y8998
X35697Y8801
X35697Y8604
X35697Y8407
X35697Y8211
X35697Y8014
X35697Y7817
X35697Y7620
X35697Y7423
X35697Y7226
X35697Y7030
X35697Y6833
X35697Y6636
X35697Y6439
X35697Y6242
X35697Y6045
X35697Y5848
X35697Y5652
X35697Y5455
X35697Y5258
X35697Y5061
X35697Y4864
X35697Y4667
X35697Y4470
X35697Y4274
X35697Y4077
X35697Y3880
X35697Y3683
X35697Y3486
X35697Y3289
X35697Y3093
X35697Y3093
X35697Y2896
X35697Y2699
X35697Y2502
X35697Y2305
X35697Y2108
X35697Y1911
X35697Y1715
X35697Y1518
X35697Y1321
X35697Y1124
X35697Y927
X35697Y730
X35500Y730
X35303Y730
X35106Y730
X34909Y730
X34713Y730
X34516Y730
X34319Y730
X34122Y730
X33925Y730
X33728Y730
X33531Y730
X33335Y730
X33335Y730
X33138Y730
X32941Y730
X32744Y730
X32547Y730
X32350Y730
X32154Y730
X31957Y730
X31760Y730
X31563Y730
X31563Y730
X31366Y730
X31169Y730
X30972Y730
X30776Y730
X30579Y730
X30382Y730
X24673Y16675
X24673Y16872
X24673Y17069
X24673Y17266
X24673Y17463
X24673Y17659
X24673Y17856
X23886Y18447
X23689Y18447
X23492Y18447
X23295Y18447
X23098Y18447
X22902Y18447
X22705Y18447
X22508Y18447
X22311Y18447
X22114Y18447
X21917Y18447
X21720Y18447
X21524Y18447
X21327Y18447
X21130Y18447
X20933Y18447
X20736Y18447
X20539Y18447
X20343Y18447
X20146Y18447
X19949Y18447
X19752Y18447
X15815Y22974
X15815Y23171
X15815Y23368
X15815Y23565
X15618Y23565
X15421Y23565
X15224Y23565
X15028Y23565
X14831Y23565
X14634Y23565
X10697Y26715
X10697Y26911
X10697Y27108
X10500Y27108
X10303Y27108
X10106Y27108
X9909Y27108
X9713Y27108
X9516Y27108
X9319Y27108
X9122Y27108
X8925Y27108
X8728Y27108
X8531Y27108
X8531Y27305
X8531Y27502
X8335Y27699
X8531Y27896
X8531Y28093
X8531Y28289
X8335Y28486
X1051Y31045
X1051Y31242
X1051Y31439
X1051Y31636
X1051Y31833
X1051Y32030
X1051Y32226
X1051Y32423
X1051Y32423
X1051Y32620
X1051Y32817
X1051Y33014
X1051Y33211
X1051Y33407
X1051Y33604
X1051Y33801
X1051Y33998
X1051Y34195
X1051Y34195
X1051Y34392
X1051Y34589
X1051Y34785
X1051Y34982
X1051Y35179
X1051Y35376
X1051Y35573
X1051Y35770
X1051Y35967
X1051Y35967
X1051Y36163
X1051Y36360
X1051Y36557
X1051Y36754
X1051Y36951
X1051Y37148
X1051Y37344
X1051Y37541
X1051Y37738
X1051Y37738
T02
X3067Y34884
X2319Y31904
X2378Y30163
X4465Y31687
X5520Y30671
X7400Y25600
X7450Y24300
X7450Y23000
X5600Y21950
X2750Y19850
X5400Y18700
X2900Y15250
X3750Y13300
X4200Y11450
X6400Y9950
X8800Y8650
X9169Y7522
X7472Y5553
X11500Y8200
X8450Y14150
X12100Y21300
X11650Y22950
X13197Y24270
X12720Y26108
X10750Y26050
X10650Y24650
X15772Y22533
X17250Y23850
X17950Y23750
X17520Y22400
X18654Y22069
X19450Y21650
X19350Y23700
X19300Y24450
X19344Y24852
X19764Y25179
X20294Y25279
X20119Y24417
X21008Y23605
X21350Y24100
X21450Y25800
X21900Y26000
X20646Y27149
X23220Y26734
X24693Y24659
X26280Y25557
X28791Y28451
X28500Y30352
X29319Y30537
X29709Y30699
X31323Y29557
X33169Y30285
X34047Y27136
X28618Y32553
X24728Y30585
X23280Y22537
X23618Y21762
X23900Y20950
X23600Y20500
X23697Y19861
X24700Y19900
X26269Y20766
X25563Y21785
X19950Y19450
X16650Y26100
X16650Y29450
X27550Y15350
X28300Y13200
X28800Y11500
X29400Y9800
X31050Y9950
X31618Y6789
X32700Y13150
X24760Y11652
X24724Y11061
X19850Y8989
X18750Y9250
X18100Y11150
T03
X20659Y23050
T04
X1700Y29450
X5050Y24950
X4700Y24300
X3700Y19300
X3950Y17050
X8200Y17050
X9600Y17300
X13350Y18700
X15400Y17850
X15800Y15500
X15300Y13200
X16850Y13150
X17900Y11750
X17300Y10400
X19850Y12450
X20900Y13000
X23750Y15050
X29750Y18600
X32200Y17250
X32799Y23817
X33524Y24380
X28689Y29297
X27350Y29724
X27232Y25675
X18550Y26650
X24900Y8000
X23600Y7450
X19600Y6750
X18550Y5800
X18450Y6400
X15050Y6650
X31500Y7450
T05
X9400Y10550
X6850Y12450
X8950Y15250
X16740Y31411
X21543Y31514
X23677Y36963
X23831Y37447
X23961Y37896
X24366Y37069
X25374Y37246
X26504Y37226
X27500Y37274
X27996Y32006
X35449Y24262
X34028Y19915
X34050Y17550
X33300Y15850
X31350Y12550
X34050Y11700
X26846Y7317
T06
X6563Y1946
X7074Y2458
X6563Y2970
X7586Y2970
X7586Y1946
X18438Y3138
X18950Y3650
X19462Y3138
X19462Y4162
X18438Y4162
X27988Y3112
X28500Y2600
X27988Y2088
X29012Y2088
X29012Y3112
T07
X11350Y9650
X11350Y10650
X11350Y11650
X11350Y12650
X11350Y13650
X25950Y14050
X25950Y13050
X25950Y12050
X25950Y11050
X25950Y10050
T08
X6000Y33250
X6000Y34250
X6000Y35250
X6000Y36250
X7000Y36250
X7000Y35250
X7000Y34250
X7000Y33250
X8000Y33250
X9000Y33250
X9000Y34250
X9000Y35250
X8000Y35250
X8000Y34250
X8000Y36250
X9000Y36250
X10000Y36250
X10000Y35250
X10000Y34250
X10000Y33250
X11000Y33250
X11000Y34250
X11000Y35250
X11000Y36250
X12000Y36250
X13000Y36250
X13000Y35250
X13000Y34250
X12000Y34250
X12000Y35250
X12000Y33250
X13000Y33250
X14000Y33250
X14000Y34250
X14000Y35250
X14000Y36250
X15000Y36250
X15000Y35250
X15000Y34250
X15000Y33250
X16000Y33250
X17000Y33250
X17000Y34250
X17000Y35250
X16000Y35250
X16000Y34250
X16000Y36250
X17000Y36250
X18000Y36250
X18000Y35250
X18000Y34250
X18000Y33250
X19000Y33250
X19000Y34250
X19000Y35250
X19000Y36250
X20000Y36250
X20000Y35250
X20000Y34250
X20000Y33250
X21000Y33250
X22000Y33250
X22000Y34250
X22000Y35250
X21000Y35250
X21000Y34250
X21000Y36250
X22000Y36250
X23000Y36250
X23000Y35250
X23000Y34250
X23000Y33250
X24000Y33250
X24000Y34250
X24000Y35250
X24000Y36250
X25000Y36250
X26000Y36250
X26000Y35250
X26000Y34250
X25000Y34250
X25000Y35250
X25000Y33250
X26000Y33250
X27000Y33250
X27000Y34250
X27000Y35250
X27000Y36250
X28000Y36250
X28000Y35250
X28000Y34250
X28000Y33250
X29000Y33250
X30000Y33250
X30000Y34250
X30000Y35250
X29000Y35250
X29000Y34250
X29000Y36250
X30000Y36250
X31000Y36250
X31000Y35250
X31000Y34250
X31000Y33250
T09
X4004Y36250
X32996Y36250
X34000Y2506
X2500Y2490
M30
